<svg id="Layer_4" data-name="Layer 4" xmlns="http://www.w3.org/2000/svg" viewBox="0 0 675.39 213.65"><defs><style>.cls-1{stroke:#fff;}.cls-1,.cls-3{stroke-miterlimit:10;stroke-width:0.5px;}.cls-2,.cls-3{fill:#fff;}.cls-3{stroke:#231f20;}</style></defs><title>Artboard 1</title><path class="cls-1" d="M139.42,63.35,74.79,183.61s-19.4-.62-24.87,1-.86,13.85,16.26,13.85h61.43s11.81-7.38-9.24-12.53c-19-4.64,25.84-68.72,25.84-68.72h22s12.29-5.31-.34-10.42H149.69L164.4,72.58l28.75,113.68h-6.33s-23.44,13.89.51,13.89h28c7.26,0,5.12-16.58-2.41-16.18S181.26,52.14,175,49.1C171.67,47.48,153.08,37.92,139.42,63.35Z"/><path class="cls-2" d="M151.56,55.21c-5.15,11.16-10.64,22.12-16.25,33-2.78,5.47-5.68,10.87-8.52,16.3l-8.71,16.19-8.9,16.09c-3,5.32-6,10.68-9.1,16C94,163.4,87.7,174,81.1,184.31c5.14-11.16,10.63-22.12,16.24-33,2.77-5.47,5.68-10.87,8.52-16.3l8.71-16.19,8.91-16.08c3-5.33,6-10.69,9.1-16C138.71,76.12,145,65.57,151.56,55.21Z"/><path class="cls-1" d="M256.92,111.89c-59.43,0-59.43,88.26,0,88.26l24.13-1.52-9.51-7.94-7.09.35c-35,.6-37.72-70.66-2.74-71.26Z"/><path class="cls-1" d="M259.89,111.89H271s.52-4.48,5.82-3.56,5.31,14.82,3.94,14.4-3.34-4.11-9.54-4.24l-6.21-.13Z"/><path class="cls-1" d="M273.59,190.71s11.12-1.65,10.61-5.81,14.12-2.11,11.3,2.91a19.4,19.4,0,0,1-13.19,9.49Z"/><path class="cls-2" d="M254.3,118.49A31.44,31.44,0,0,0,242.58,125a30.54,30.54,0,0,0-7.66,10.66,41.07,41.07,0,0,0-3.17,12.78,49.51,49.51,0,0,0,.57,13.2,48.73,48.73,0,0,0,3.89,12.62,38.35,38.35,0,0,0,7.37,10.85,26.72,26.72,0,0,0,11.08,6.9,29.19,29.19,0,0,0,13.33.78,25.95,25.95,0,0,1-26-6,38.23,38.23,0,0,1-8.31-11.31,50.23,50.23,0,0,1-4.29-13.34,51.31,51.31,0,0,1-.43-14,40.53,40.53,0,0,1,3.88-13.48,30.26,30.26,0,0,1,8.84-10.81A28.76,28.76,0,0,1,254.3,118.49Z"/><path class="cls-1" d="M324.75,119.5c9.58.15,0-6.6,0-6.6H301.47c-13.34,0,3.43,10.84,3.43,10.84l0,68.41c-11.55.16-11.4,6.53.15,6.37,0,0,4.1.26,14.89-.21s5.43-4.48-.35-6.85c-3.14-1.3,0-58.64,0-58.64S319.32,119.42,324.75,119.5Z"/><path class="cls-1" d="M321.22,134.22c5.46,4.73,23.22,19.94,26.29,20.46,3.63.61,22.76-13.81,22.76-13.81s6.5,53.92,3.43,54.18c-5.07.43-6.13,3.76-1.05,3.33a84,84,0,0,0,8.44.2c7.9-.11,4.77-4,4.77-4s-13.71-72.71-2.59-74.29c5.75-.82,0-7.39,0-7.39H363.59c-2.56,0-6.33,6.34.52,6.6s7.53,1.27,7.53,1.27-21.05,25.24-24.82,23.4c-2.59-1.27-18.81-12.67-24.34-20.43Z"/><path class="cls-2" d="M310,123.74c.62,5.76.94,11.52,1.16,17.28.14,2.88.17,5.76.25,8.63l.09,8.64-.08,8.64c-.09,2.88-.11,5.76-.25,8.64-.22,5.75-.55,11.51-1.17,17.27-.63-5.76-.95-11.52-1.17-17.27-.14-2.88-.17-5.76-.25-8.64l-.08-8.64.08-8.64c.08-2.87.11-5.75.25-8.63C309,135.26,309.33,129.5,310,123.74Z"/><path class="cls-3" d="M440.15,116.72l6.2.13"/><path class="cls-1" d="M426.16,145.75c32.08,1.2,31.4-22.46,31.4-22.46,7.5-13-11.42-10-11.42-10H431.86c-59.25.2-59.18,85.22.19,85.22L456.18,197l-9.51-7.95-7.09.35c-21.27.37-31.84-26.88-26.63-47.71C413,141.69,417.32,145.42,426.16,145.75Z"/><path class="cls-1" d="M448.72,189.07s11.12-1.64,10.61-5.8,14.12-2.11,11.29,2.9a19.37,19.37,0,0,1-13.18,9.5Z"/><path class="cls-2" d="M431.88,116.4a37.6,37.6,0,0,0-13.83,4.23,33.5,33.5,0,0,0-10.68,9.18,41.24,41.24,0,0,0-6.4,12.5,45.51,45.51,0,0,0-2.17,13.9,43.8,43.8,0,0,0,2,13.88,38.49,38.49,0,0,0,6.49,12.41,36.41,36.41,0,0,0,10.75,9.16,48.82,48.82,0,0,0,13.63,5,40.59,40.59,0,0,1-14.51-3.26,35.57,35.57,0,0,1-12.26-8.9,39,39,0,0,1-7.69-13.22,46.53,46.53,0,0,1-2.45-15.11,47.72,47.72,0,0,1,2.59-15.07A40.88,40.88,0,0,1,405,127.84a32.56,32.56,0,0,1,26.91-11.44Z"/><path class="cls-2" d="M417.1,136.86c-3-.75,10.35-14.26,13.82-15.18s21.21-.41,17.22,7.68S442.63,138.78,417.1,136.86Z"/><path class="cls-1" d="M503.55,51.94c-52.36,52.52-54.48,98.05,1.51,148.21h19.5s9.88-6.78,0-10.16c-54.2-18.58-27.44-141.27,10.38-127.68,0,0,10.22-10.29.12-10.69S503.55,51.94,503.55,51.94Z"/><path class="cls-1" d="M537.13,61.11c34.82-.24,44,127.19-.44,129.43-4,.2-8.82,7.52-6.51,8.47S549,198.6,549,198.6c44.32-47.93,47.81-95,0-144.88,0,0-6.42-.59-7.7,0S535.84,61.12,537.13,61.11Z"/><path d="M604.88,64.37s51-66.2-15.5-42c0,0-2.31,1.21-3.91,6.2a4.38,4.38,0,0,0,2.42,5.5s58.6-24.43,7.3,30.08v5.36c3.88.32,7.7.58,9.69-1.16Z"/><path d="M593.88,73.51s8,1,10.19-.81,8.08,2.7,18-.46,5.37,5.79-3.3,6.93-12.82-.17-18.92,1.74-8.06,1.54-8.28.77S595.5,77.35,593.88,73.51Z"/></svg>