<svg xmlns="http://www.w3.org/2000/svg" viewBox="0 0 595.28 216"><defs><style>.cls-1{stroke:#fff;}.cls-1,.cls-2,.cls-4{stroke-miterlimit:10;}.cls-2,.cls-4,.cls-5{fill:#fff;}.cls-2,.cls-4{stroke:#231f20;}.cls-3{fill:#231f20;}.cls-4{stroke-width:3px;}</style></defs><title>Artboard 1</title><g id="Layer_1" data-name="Layer 1"><path class="cls-1" d="M484.87,90.39h46.24c-19.18,11.37-18.9,21.92.29,31.63H484.87C476,111.73,475.36,101.2,484.87,90.39Z"/><path class="cls-1" d="M484.87,88.14c-10,8.46-13.31,23.58-.49,36.48-9.18,1.68-12.92,8-15.61,16.12-12.28,37.2-45.56,61-84.75,61q-170.94,0-341.87,0c-5.8,0-9.86-2.56-12-7.28A159.37,159.37,0,0,1,21,170.88a276.39,276.39,0,0,1-7.9-35.28,218.71,218.71,0,0,1,.7-65.72c2.23-13.83,7-27.27,10.83-40.81.9-3.16,2.67-6.08,4.16-9,3.29-6.57,8.16-9.33,16-9.31,112.45.23,224.91.53,337.36-.08,40.82-.23,76.77,25.8,87.68,64C472,82.38,475.12,85,484.87,88.14Z"/><path class="cls-1" d="M533.27,91.54c1-1.67,2.47-3.23,2.8-5,2-10.84,4-12.42,15.25-11.13a10.24,10.24,0,0,0-.65,1.19c-1,2.67-3.2,5.69-2.58,7.93.5,1.84,4.32,3.79,6.74,3.88,5.9.2,11.83-.65,17.74-1.07l-.05-1.41-4.92-.67.27-1.47c4.08.8,8.33,1.13,12.2,2.53s5.67,7.48,3,12.17c-3.54,6.17-3,11.7-.27,18,3.35,7.64-1,13.81-9.32,13.62-6.07-.13-11,.6-16,5.39-2.78,2.67-9.35,1.81-14.21,1.83-5.13,0-7.33-2.94-8-10.56-.36-4.2-2.37-7.09-5.37-9.61a62,62,0,0,1-4.91-4.22c-4.46-4.66-3.94-11.26,1-15.32,2.44-2,4.82-4,7.22-6Z"/><path class="cls-1" d="M513.49,163c-.87,2.23-1.75,4.46-2.62,6.68l-1.93-.54V157.32l-7.9-.75c.59-7.94,1.09-15.95,1.92-23.92.08-.84,2-1.94,3.15-2.13,2.87-.47,5.82-.49,8.77-.68.45-2,.84-3.66,1.23-5.35l1.23-.09,1.29,5.26c6.27,2.77,4.41-3.53,6.48-6.48.31,2.66.53,4.56.8,6.84,5.7-.85,6.76,2.58,6.9,7,.2,6.43.56,12.85.87,19.59h-7.44c0,3.36.15,6.47-.08,9.54-.08,1-1.16,1.9-1.78,2.84a19.68,19.68,0,0,1-1.44-2.72c-.75-2.17-1.37-4.38-2-6.58L513.83,162C513.72,162.31,513.61,162.63,513.49,163Z"/><path class="cls-1" d="M517.36,166.4c.11-.32.22-.64.34-1a29.67,29.67,0,0,1,5.13-.42,3.53,3.53,0,0,1,.66,2.83c-.57.9-2.32,2-3,1.73C519.26,169,518.4,167.51,517.36,166.4Z"/><path class="cls-1" d="M524.05,122.07c4.58-2.84,6.62-5,8.75-5.13,1.64-.06,4.93,2.83,4.74,3.93-.38,2.19-2.38,5.32-4.21,5.71S528.93,124.61,524.05,122.07Z"/></g><g id="Layer_3" data-name="Layer 3"><path class="cls-2" d="M86.46,53,42.85,158.26s-13.1-.54-16.79.85-.58,12.13,11,12.13H78.49s8-6.47-6.23-11C59.45,156.2,89.7,100.09,89.7,100.09h14.84s8.3-4.65-.23-9.12H93.39l9.94-29.92,19.4,99.54h-4.27s-15.83,12.15.34,12.15h18.89c4.9,0,3.46-14.51-1.63-14.16S114.7,43.15,110.49,40.5C108.23,39.08,95.69,30.71,86.46,53Z"/><path class="cls-3" d="M93.31,45.84c-3.39,9.66-7.06,19.21-10.82,28.71-1.85,4.77-3.8,9.49-5.71,14.23l-5.87,14.16-6,14.1c-2,4.68-4.06,9.38-6.17,14-4.17,9.34-8.43,18.63-13,27.81,3.39-9.66,7-19.21,10.81-28.71,1.85-4.77,3.81-9.49,5.72-14.23l5.87-14.16,6-14.1c2-4.68,4.06-9.37,6.17-14C84.51,64.32,88.77,55,93.31,45.84Z"/><path class="cls-2" d="M165.77,95.47c-40.12,0-40.12,77.27,0,77.27l16.28-1.32-6.42-7-4.78.31c-23.61.52-25.46-61.86-1.85-62.39Z"/><path class="cls-2" d="M167.77,95.47h7.51s.35-3.92,3.93-3.12,3.58,13,2.65,12.61-2.25-3.6-6.44-3.71l-4.18-.12Z"/><path class="cls-2" d="M177,164.48s7.51-1.44,7.16-5.08,9.53-1.85,7.62,2.54-5.08,7.28-8.9,8.32Z"/><path class="cls-3" d="M165.35,101.25a19.06,19.06,0,0,0-8.54,6.22,28.7,28.7,0,0,0-4.79,9.37,45.62,45.62,0,0,0-1.89,10.43,56.34,56.34,0,0,0,.22,10.63,55,55,0,0,0,2.13,10.41,39.75,39.75,0,0,0,4.32,9.63,20.18,20.18,0,0,0,7.44,7.24,13.07,13.07,0,0,0,5,1.51,16.59,16.59,0,0,0,5.33-.42,14.39,14.39,0,0,1-10.77-.2,20.35,20.35,0,0,1-8.31-7.26c-4.23-6.13-6.29-13.42-7.14-20.69a49.63,49.63,0,0,1,2.18-21.77,27.9,27.9,0,0,1,5.52-9.52A18.53,18.53,0,0,1,165.35,101.25Z"/><path class="cls-2" d="M211.54,102.13c6.47.13,0-5.77,0-5.77h-15.7c-9,0,2.31,9.49,2.31,9.49l0,59.89c-7.8.14-7.7,5.72.1,5.58a87.9,87.9,0,0,0,10-.18c7.28-.4,3.67-3.93-.23-6-2.12-1.13,0-51.33,0-51.33S207.89,102.06,211.54,102.13Z"/><path class="cls-2" d="M209.16,115c3.69,4.14,15.67,17.46,17.75,17.91,2.45.54,15.36-12.09,15.36-12.09s4.39,47.22,2.32,47.44c-3.43.38-4.14,3.29-.71,2.92a44.51,44.51,0,0,0,5.69.17c5.33-.09,3.22-3.5,3.22-3.5s-9.25-63.66-1.75-65c3.88-.72,0-6.47,0-6.47H237.76c-1.73,0-4.27,5.54.35,5.77s5.08,1.12,5.08,1.12-14.21,22.1-16.75,20.48c-1.74-1.11-12.69-11.09-16.43-17.88Z"/><path class="cls-3" d="M200.88,105.85c.41,5,.63,10.08.78,15.12s.2,10.09.22,15.13-.06,10.08-.22,15.12-.36,10.09-.78,15.13c-.42-5-.63-10.09-.78-15.13s-.2-10.08-.22-15.12.06-10.09.22-15.13S200.47,110.89,200.88,105.85Z"/><path class="cls-2" d="M289.43,99.7l4.19.12"/><path class="cls-2" d="M280,125.12c21.65,1,21.2-19.67,21.2-19.67,5.05-11.41-7.71-8.75-7.71-8.75h-9.64c-40,.17-39.94,74.61.13,74.61L300.25,170,293.83,163l-4.78.31c-14.36.32-21.49-23.54-18-41.78C271.07,121.56,274,124.83,280,125.12Z"/><path class="cls-2" d="M295.22,163.05s7.5-1.44,7.16-5.08,9.52-1.85,7.62,2.54-5.08,7.28-8.9,8.31Z"/><path class="cls-3" d="M281.15,98.54a20.08,20.08,0,0,0-10.38,4.35,27.18,27.18,0,0,0-6.9,8.73,42.81,42.81,0,0,0-3.7,10.59,52.69,52.69,0,0,0-1.2,11.2,51.37,51.37,0,0,0,1.11,11.21,39.79,39.79,0,0,0,3.74,10.56,27.87,27.87,0,0,0,7,8.68,25.59,25.59,0,0,0,10.22,5A23,23,0,0,1,270,165a27.26,27.26,0,0,1-8.16-8.7c-4.18-6.9-5.81-15-5.82-22.94s1.79-16,5.86-22.92a26.61,26.61,0,0,1,8.08-8.77A18.76,18.76,0,0,1,281.15,98.54Z"/><path class="cls-3" d="M273.88,117.33c-2-.65,7-12.49,9.32-13.29s14.32-.36,11.62,6.72S291.11,119,273.88,117.33Z"/><path class="cls-4" d="M332.22,43c-35.34,46-36.77,85.85,1,129.76H346.4s6.67-5.93,0-8.89c-36.58-16.27-18.52-123.69,7-111.79,0,0,6.89-9,.08-9.36S332.22,43,332.22,43Z"/><path class="cls-4" d="M354.89,51c23.5-.21,29.67,111.36-.3,113.33-2.66.17-5.95,6.58-4.4,7.41s12.71-.36,12.71-.36c29.91-42,32.27-83.21,0-126.85,0,0-4.33-.52-5.2,0S354,51,354.89,51Z"/><path class="cls-5" d="M400.61,55.09s34.44-42.82-10.46-27.17c0,0-1.56.79-2.64,4a2.82,2.82,0,0,0,1.63,3.56S428.7,19.69,394.07,55v3.47c2.62.2,5.2.37,6.54-.75Z"/><path class="cls-5" d="M393.19,61.87s5.38.92,6.88-.72,5.45,2.37,12.13-.4,3.62,5.08-2.23,6.07-8.65-.15-12.77,1.52-5.44,1.35-5.59.68S394.28,65.23,393.19,61.87Z"/></g></svg>