<svg xmlns="http://www.w3.org/2000/svg" xmlns:xlink="http://www.w3.org/1999/xlink" viewBox="0 0 5000 4000"><defs><style>.cls-1{isolation:isolate;}.cls-2{fill:#0a003e;}.cls-3{fill:#353368;}.cls-13,.cls-25,.cls-4{fill:none;}.cls-4{stroke:#000;}.cls-10,.cls-11,.cls-25,.cls-31,.cls-4,.cls-9{stroke-miterlimit:10;}.cls-5{fill:url(#linear-gradient);}.cls-6{fill:url(#linear-gradient-2);}.cls-7{fill:#3d3860;}.cls-8{fill:#0e0e23;}.cls-10,.cls-11,.cls-9{stroke:#0a003e;}.cls-9{fill:url(#linear-gradient-3);}.cls-10{fill:url(#linear-gradient-4);}.cls-11,.cls-21{fill:#efbf6a;}.cls-12{fill:#fff;}.cls-14{fill:url(#linear-gradient-5);}.cls-15{fill:#009;}.cls-15,.cls-22{mix-blend-mode:multiply;}.cls-16{fill:url(#linear-gradient-6);}.cls-17{fill:url(#linear-gradient-7);}.cls-18{fill:url(#linear-gradient-8);}.cls-19{fill:url(#linear-gradient-9);}.cls-20{fill:url(#linear-gradient-10);}.cls-22{fill:#cad4e8;}.cls-23{fill:url(#linear-gradient-11);}.cls-24{fill:url(#linear-gradient-12);}.cls-25{stroke:#fefefe;}.cls-26{fill:url(#linear-gradient-13);}.cls-27{fill:url(#linear-gradient-14);}.cls-28{fill:url(#linear-gradient-15);}.cls-29{fill:url(#linear-gradient-16);}.cls-30{fill:url(#linear-gradient-17);}.cls-31{stroke:#fff;stroke-width:3px;fill:url(#linear-gradient-18);}.cls-32{fill:url(#linear-gradient-19);}.cls-33{fill:url(#linear-gradient-20);}.cls-34{fill:url(#linear-gradient-21);}.cls-35{fill:url(#linear-gradient-22);}.cls-36{fill:url(#linear-gradient-23);}.cls-37{fill:url(#linear-gradient-24);}.cls-38{fill:url(#linear-gradient-25);}.cls-39{fill:url(#linear-gradient-26);}.cls-40{fill:url(#linear-gradient-27);}.cls-41{fill:url(#linear-gradient-28);}.cls-42{fill:url(#linear-gradient-29);}.cls-43{fill:#fefefe;}.cls-44{fill:url(#linear-gradient-30);}.cls-45{fill:url(#linear-gradient-31);}.cls-46{fill:url(#linear-gradient-32);}.cls-47{fill:url(#linear-gradient-33);}.cls-48{fill:url(#linear-gradient-34);}</style><linearGradient id="linear-gradient" x1="1987.91" y1="3061.45" x2="5000" y2="3061.45" gradientUnits="userSpaceOnUse"><stop offset="0.46" stop-color="#66669a"/><stop offset="0.64" stop-color="#515176"/><stop offset="1" stop-color="#202121"/></linearGradient><linearGradient id="linear-gradient-2" x1="2483.66" y1="2741.43" x2="2483.66" y2="3314.78" gradientUnits="userSpaceOnUse"><stop offset="0.25" stop-color="#66669a"/><stop offset="1" stop-color="#202121"/></linearGradient><linearGradient id="linear-gradient-3" x1="2106.92" y1="3231.08" x2="2440.16" y2="3231.08" gradientUnits="userSpaceOnUse"><stop offset="0" stop-color="#7866fa"/><stop offset="0" stop-color="#7866f9"/><stop offset="0.19" stop-color="#5747c1"/><stop offset="0.37" stop-color="#3b2e92"/><stop offset="0.54" stop-color="#261a6e"/><stop offset="0.7" stop-color="#170c53"/><stop offset="0.84" stop-color="#0d0344"/><stop offset="0.95" stop-color="#0a003e"/></linearGradient><linearGradient id="linear-gradient-4" x1="2652.59" y1="3180.09" x2="2923.57" y2="3180.09" xlink:href="#linear-gradient-3"/><linearGradient id="linear-gradient-5" x1="1583.27" y1="2842.19" x2="1833.99" y2="2842.19" gradientUnits="userSpaceOnUse"><stop offset="0" stop-color="#66669a"/><stop offset="1" stop-color="#323640"/></linearGradient><linearGradient id="linear-gradient-6" x1="1296.98" y1="2842.19" x2="1549.02" y2="2842.19" gradientUnits="userSpaceOnUse"><stop offset="0" stop-color="#7866fa"/><stop offset="1" stop-color="#5349de"/></linearGradient><linearGradient id="linear-gradient-7" x1="2604.53" y1="2842.19" x2="2856.58" y2="2842.19" xlink:href="#linear-gradient-6"/><linearGradient id="linear-gradient-8" x1="2890.82" y1="2842.19" x2="3141.54" y2="2842.19" xlink:href="#linear-gradient-5"/><linearGradient id="linear-gradient-9" x1="2267.13" y1="2330.98" x2="2890.83" y2="2330.98" gradientUnits="userSpaceOnUse"><stop offset="0" stop-color="#66669a"/><stop offset="1" stop-color="#3d3860"/></linearGradient><linearGradient id="linear-gradient-10" x1="2177.11" y1="2202.44" x2="2361.87" y2="2202.44" xlink:href="#linear-gradient-6"/><linearGradient id="linear-gradient-11" x1="1395.49" y1="2383.71" x2="3043.69" y2="2383.71" xlink:href="#linear-gradient-6"/><linearGradient id="linear-gradient-12" x1="1662.13" y1="2163.34" x2="1662.13" y2="2351" gradientUnits="userSpaceOnUse"><stop offset="0" stop-color="#fefefe"/><stop offset="1" stop-color="#66669a"/></linearGradient><linearGradient id="linear-gradient-13" x1="1221.18" y1="847.65" x2="1221.18" y2="439.52" gradientUnits="userSpaceOnUse"><stop offset="0" stop-color="#fefefe"/><stop offset="1" stop-color="#362e61"/></linearGradient><linearGradient id="linear-gradient-14" x1="1057.54" y1="1419.46" x2="1057.54" y2="1820.46" gradientUnits="userSpaceOnUse"><stop offset="0" stop-color="#362e61"/><stop offset="1" stop-color="#fefefe"/></linearGradient><linearGradient id="linear-gradient-15" x1="3946.15" y1="1026.93" x2="3946.15" y2="1441.27" xlink:href="#linear-gradient-14"/><linearGradient id="linear-gradient-16" x1="2513.16" y1="388.99" x2="2513.16" y2="702.18" xlink:href="#linear-gradient-6"/><linearGradient id="linear-gradient-17" x1="2513.16" y1="837.79" x2="2513.16" y2="1150.97" xlink:href="#linear-gradient-6"/><linearGradient id="linear-gradient-18" x1="2176.47" y1="1235.84" x2="2884.61" y2="1432.54" xlink:href="#linear-gradient-6"/><linearGradient id="linear-gradient-19" x1="1916.46" y1="435.16" x2="1916.46" y2="556.28" gradientUnits="userSpaceOnUse"><stop offset="0" stop-color="#66669a"/><stop offset="1" stop-color="#5349de"/></linearGradient><linearGradient id="linear-gradient-20" x1="1916.47" y1="547.57" x2="1916.47" y2="626.93" xlink:href="#linear-gradient-6"/><linearGradient id="linear-gradient-21" x1="1916.47" y1="908.68" x2="1916.47" y2="1096.64" xlink:href="#linear-gradient-19"/><linearGradient id="linear-gradient-22" x1="2235.03" y1="950.75" x2="2235.03" y2="1054.58" gradientTransform="translate(2697.36 -1402.94) rotate(76.72)" xlink:href="#linear-gradient-19"/><linearGradient id="linear-gradient-23" x1="2397.85" y1="950.75" x2="2397.85" y2="1054.58" gradientTransform="translate(1411.3 -1401.86) rotate(45)" xlink:href="#linear-gradient-19"/><linearGradient id="linear-gradient-24" x1="2565.07" y1="950.75" x2="2565.07" y2="1054.58" gradientTransform="translate(1460.28 -1520.11) rotate(45)" xlink:href="#linear-gradient-19"/><linearGradient id="linear-gradient-25" x1="2742.05" y1="950.75" x2="2742.05" y2="1054.58" gradientTransform="translate(1512.12 -1645.25) rotate(45)" xlink:href="#linear-gradient-19"/><linearGradient id="linear-gradient-26" x1="3146.74" y1="940.8" x2="3146.74" y2="1064.52" xlink:href="#linear-gradient-6"/><linearGradient id="linear-gradient-27" x1="3146.74" y1="940.26" x2="3146.74" y2="1065.06" xlink:href="#linear-gradient-6"/><linearGradient id="linear-gradient-28" x1="3146.74" y1="965.62" x2="3146.74" y2="1035.06" gradientTransform="translate(1629.01 -1932.09) rotate(45)" xlink:href="#linear-gradient-19"/><linearGradient id="linear-gradient-29" x1="2639.14" y1="485.28" x2="2639.14" y2="576.81" gradientUnits="userSpaceOnUse"><stop offset="0" stop-color="#66669a"/><stop offset="1" stop-color="#534adc"/></linearGradient><linearGradient id="linear-gradient-30" x1="2756.51" y1="3278.21" x2="2756.51" y2="4007.54" gradientUnits="userSpaceOnUse"><stop offset="0" stop-color="#202121"/><stop offset="0" stop-color="#222323"/><stop offset="0.11" stop-color="#565656"/><stop offset="0.22" stop-color="#838383"/><stop offset="0.33" stop-color="#a9a9a9"/><stop offset="0.45" stop-color="#c8c9c9"/><stop offset="0.57" stop-color="#e0e1e1"/><stop offset="0.69" stop-color="#f2f2f2"/><stop offset="0.83" stop-color="#fcfcfc"/><stop offset="1" stop-color="#fff"/></linearGradient><linearGradient id="linear-gradient-31" x1="1422.21" y1="3278.21" x2="1422.21" y2="4007.54" xlink:href="#linear-gradient-30"/><linearGradient id="linear-gradient-32" x1="1707.84" y1="3278.21" x2="1707.84" y2="4007.54" xlink:href="#linear-gradient-30"/><linearGradient id="linear-gradient-33" x1="2026.85" y1="3278.21" x2="2026.85" y2="4007.54" gradientTransform="matrix(-1, 0, 0, 1, 5047, 0)" xlink:href="#linear-gradient-30"/><linearGradient id="linear-gradient-34" x1="2294.97" y1="3288.3" x2="2294.97" y2="4007.37" xlink:href="#linear-gradient-30"/></defs><title>Artboard 2</title><g class="cls-1"><g id="Layer_1" data-name="Layer 1"><circle class="cls-2" cx="2513.16" cy="1477.88" r="1251.49"/><path class="cls-3" d="M1221.18,2222.86s-246.23,560.07,20.56,537C1449.86,2741.89,1221.18,2222.86,1221.18,2222.86Z"/><line class="cls-4" x1="1221.18" y1="2378.31" x2="1221.18" y2="2890.92"/><polyline class="cls-4" points="1174.93 2420.7 1221.18 2474.66 1272.57 2420.7"/><polyline class="cls-4" points="1174.93 2520.91 1221.18 2574.87 1272.57 2520.91"/><polyline class="cls-4" points="1174.93 2615.98 1221.18 2669.94 1272.57 2615.98"/><path class="cls-5" d="M5000,2884.21c-102.38-34.07-220.39-55-349.15-65.3-190.24-15.25-404-7.37-625.44,15.42q-39.39,4.05-79.1,8.72-14.42,1.69-28.89,3.48-10.4,1.28-20.81,2.58-40.12,5.07-80.43,10.68c-247.46,34.46-498.38,83.89-731.76,137.32l-8.75,2q-24.32,5.57-48.34,11.21-9.57,2.23-19.08,4.5-14.4,3.39-28.69,6.81-71.14,17-139.43,34.23l-.44.11-9.48,2.38q-13,3.3-25.86,6.57-19.51,5-38.73,9.93l-3.52.91-5.85,1.52q-47.1,12.21-92.31,24.29c-65,17.37-126.86,34.43-184.81,50.81q-47.22,13.38-90.9,26.07c-4.46,1.3-8.9,2.58-13.3,3.88-.87.24-1.74.5-2.6.75q-36.81,10.76-70.73,20.87c-59.54,17.74-112,33.87-156.26,47.7-100,31.28-157.43,50.82-157.43,50.82l120,.37,305.76,1,239.9.73h.57l32.7.1L2794,3305l38.87.12,128,.4,47.93.15,84.89.26,50.87.16L5000,3311.85Z"/><path class="cls-6" d="M8.86,3131c52.76-27.29,159.79-80.49,298.61-138.25q30.16-12.57,62.26-25.34c34.9-13.86,71.4-27.82,109.18-41.56,222.65-81,490.35-155.1,742.27-164.49,65.61-2.46,130.13-.52,192.51,6.84q24.87,2.9,49.27,7,18.24,3.08,36.21,6.82c49.78,10.41,113.76,22.51,189.34,36q23.7,4.22,48.9,8.61c157.87,27.52,358.47,60,582.13,94.86,74.4,11.59,151.36,23.45,230.14,35.48l16.2,2.48q84,12.79,170.37,25.83l52.49,7.9,46.88,7q71.55,10.73,143.93,21.49h0l28.69,4.27,23.21,3.43,52.48,7.78.48.07c922,136.41,1874.05,268.46,1874.05,268.46H8.86Z"/><path class="cls-7" d="M3160.88,2685.28l22.76-22.75A177.6,177.6,0,0,0,3434,2412.2l22.76-22.75a194.68,194.68,0,0,1,0,275.36l-20.47,20.47C3360.21,2761.32,3236.93,2761.32,3160.88,2685.28Z"/><rect class="cls-8" x="3008.25" y="2728.05" width="76.17" height="349.1"/><path class="cls-7" d="M3378.21,1877.51H3685.6a43.07,43.07,0,0,1,43.07,43.07v520a43.07,43.07,0,0,1-43.07,43.07H3335.14a0,0,0,0,1,0,0v-563.1A43.07,43.07,0,0,1,3378.21,1877.51Z"/><path class="cls-8" d="M3324.26,1877.51h307.39a43.07,43.07,0,0,1,43.07,43.07v520a43.07,43.07,0,0,1-43.07,43.07H3281.19a0,0,0,0,1,0,0v-563.1A43.07,43.07,0,0,1,3324.26,1877.51Z"/><path class="cls-8" d="M3298.64,3305.66h-38.81a214.19,214.19,0,0,0-213.5-196.77c-112.44,0-204.63,86.61-213.49,196.77H2794a234.8,234.8,0,0,1,234.85-234.85h34.91C3193.5,3070.81,3298.64,3176,3298.64,3305.66Z"/><rect class="cls-8" x="2713.1" y="2604.28" width="666.47" height="177.73" rx="28"/><path class="cls-9" d="M2440.16,3200.93,2411.6,3312H2106.93s-1.92-64,98.38-82.52c85.69-15.87,117.43-79.34,117.43-79.34Z"/><path class="cls-10" d="M2827.6,3039.89l96,127.8-263.7,152.61s-33.68-54.38,43.82-120.7c66.22-56.65,4.21-94.1,4.21-94.1Z"/><path class="cls-8" d="M2508.4,2390.05c-85.69,6.35-279.29,130.12-104.73,352.28s295.15,412.58,295.15,412.58l155.51-114.25L2603.61,2498l170.47-74.81Z"/><path class="cls-7" d="M2279.89,3151.74s96.57-695,237.12-731.54,889.54-36.49,889.54-36.49,95.21,203.11-79.35,247.54-667.37,20.41-667.37,20.41L2457.62,3212Z"/><path class="cls-11" d="M2329.08,2352.06s70.11-83.27,193.6-60.3,340-21.28,340-21.28l20.11-307.29h135s0,333.13-60.31,419.29-342.82-35.77-415.74-36.77Z"/><path class="cls-12" d="M2855.91,2093.32h161.86l-12.69-301.5S2843.22,1772.77,2855.91,2093.32Z"/><path class="cls-13" d="M3000,1792.67c1.84,0,3.22.07,4.05.13l12.61,299.45H2856.94c-2.65-68.68,2.63-127,15.68-173.29,10.65-37.79,26.51-67.83,47.14-89.3,32.09-33.39,66.81-37,80.24-37m0-1.07c-27.32,0-155.43,15.2-144.09,301.72h161.86l-12.69-301.5a47.27,47.27,0,0,0-5.08-.22Z"/><path class="cls-12" d="M3005.08,1791.82s152.33-19,428.44-12.7l21.25,634.14-471.91-28Z"/><path class="cls-13" d="M3322.87,1778.89c35.7,0,72.58.43,109.62,1.27l21.18,632L2984,2384.29l22.14-591.52c11.06-1.31,122.91-13.88,316.75-13.88h0m0-1.06c-205.84,0-317.77,14-317.77,14l-22.22,593.47,471.91,28-21.25-634.14q-59.17-1.36-110.67-1.29Z"/><polygon class="cls-14" points="1634.05 3302.26 1583.27 3302.26 1783.21 2382.12 1833.99 2382.12 1634.05 3302.26"/><path class="cls-15" d="M2730.55,3165.78l135.15-75.16-36.76-50-117.43,63.47S2730.55,3132.22,2730.55,3165.78Z"/><polygon class="cls-12" points="1348.42 3302.26 1297.64 3302.26 1497.58 2382.12 1548.36 2382.12 1348.42 3302.26"/><path class="cls-16" d="M1348.85,3302.79H1297l.14-.64,200-920.56H1549l-.14.64Zm-50.55-1.06H1348l199.71-919.08H1498Z"/><polygon class="cls-12" points="2805.14 3302.26 2855.91 3302.26 2655.97 2382.12 2605.19 2382.12 2805.14 3302.26"/><path class="cls-17" d="M2856.58,3302.79h-51.87l-.1-.42-200.08-920.78h51.87l.09.42Zm-51-1.06h49.68l-199.71-919.08h-49.69Z"/><polygon class="cls-18" points="3090.77 3302.26 3141.55 3302.26 2941.6 2382.12 2890.82 2382.12 3090.77 3302.26"/><polygon class="cls-19" points="2267.13 2348.32 2831.78 2348.32 2890.83 2313.65 2326.18 2313.65 2267.13 2348.32"/><polygon class="cls-8" points="2730.55 2127.22 1946.28 2127.22 1864.27 1608.41 2648.54 1608.41 2730.55 2127.22"/><polygon class="cls-12" points="2700.27 2127.22 1916 2127.22 1833.99 1608.41 2618.26 1608.41 2700.27 2127.22"/><path class="cls-13" d="M2700.9,2127.75H1915.55l-.08-.45-82.1-519.42h785.35l.07.45Zm-784.44-1.06h783.19l-81.84-517.75h-783.2Z"/><polygon class="cls-8" points="2202.98 2348.31 2369.23 2348.31 2382.07 2105.01 2363.9 2056.56 2202.98 2348.31"/><polygon class="cls-12" points="2177.68 2348.31 2343.92 2348.31 2361.31 2056.56 2195.06 2056.56 2177.68 2348.31"/><path class="cls-20" d="M2344.43,2348.85H2177.11l0-.57L2194.56,2056h167.31l0,.57Zm-166.19-1.07h165.18l17.32-290.68H2195.56Z"/><path class="cls-21" d="M3150.84,1480.38s-14.77,184.85,59.5,308.89c4.32,35.24-95.31,138.79-126.49,42l-37.47-116.11s-80.6-3.16-92.16-25.34c-7.16-13.73-17.77-134.31,24.7-196.4C3005,1455.3,3054.53,1466.4,3150.84,1480.38Z"/><path class="cls-8" d="M2945.76,1602.24s-40.32,109.33,21.09,135.29c46.08,19.47,138.07-55.53,148.36-157.17,21.49-1.64,27.22,74.38,50.05,89.85,0,0,49.19-158.64-14.42-189.83,0,0,19.79-49.42-89.73-90.44-168-62.92-186.34,125.33-95.21,128.07,83.52,2.5,103.5,22.19,109.93,41.92C3083,1581.89,3015.17,1615,2945.76,1602.24Z"/><path class="cls-21" d="M2950.82,1621.41s42,7.87,73.71-1.74C3024.53,1619.67,2979.8,1694.6,2950.82,1621.41Z"/><path class="cls-22" d="M3327.2,1952.09s-6.34,215.81-22.21,266.59-295.15,142.09-295.15,142.09v28.68l409.4.6s73-266.58,44.43-345.93S3327.2,1952.09,3327.2,1952.09Z"/><path class="cls-11" d="M3113.8,1609.28s49.6-11,55.13-33c10.49-41.8-25.3-48.51-53.14-35.58"/><rect class="cls-12" x="1396.02" y="2347.21" width="1647.14" height="72.99"/><path class="cls-23" d="M3043.69,2420.74H1395.49v-74.06h1648.2Zm-1647.13-1.07H3042.63v-71.93H1396.56Z"/><path class="cls-21" d="M2700.27,2348.31s89-99.48,225.46-74.09,488.75-15.87,488.75-15.87l-44.43-330.07h149.16s66.65,358.63,0,453.84-511.65-32.7-592.23-33.81Z"/><path class="cls-12" d="M3433.52,1779.12s105.54,27.51,109.9,331.12l-173.37,18S3236.76,1782.3,3433.52,1779.12Z"/><path class="cls-13" d="M3433.38,1780.19c2,.6,27.1,8.83,52.54,51.19,15.58,25.93,28.18,59.33,37.45,99.28,11.55,49.76,17.93,109.85,19,178.62l-171.58,17.8a823.22,823.22,0,0,1-33.52-118.63c-7.55-38-11-72.08-10.12-101.38,1-36.53,8.69-65.62,22.76-86.47,17.65-26.17,45.75-39.76,83.5-40.41m.14-1.07c-196.76,3.18-63.47,349.11-63.47,349.11l173.37-18c-4.36-303.61-109.9-331.12-109.9-331.12Z"/><polygon class="cls-22" points="3402.97 2172.81 3547.18 2163.41 3543.01 2110.77 3397.03 2126.64 3402.97 2172.81"/><polygon class="cls-22" points="2874.14 2095.55 2869.51 2166.36 2990.52 2180.59 2990.52 2093.32 2874.14 2095.55"/><path class="cls-15" d="M2281,3196.72l146.44,51.64,13.69-43.55-128.4-43.55S2300.07,3185.43,2281,3196.72Z"/><path class="cls-3" d="M369.73,2444s-260.26,592,21.73,567.63C611.45,2992.63,369.73,2444,369.73,2444Z"/><line class="cls-4" x1="369.73" y1="2608.32" x2="369.73" y2="3150.15"/><polyline class="cls-4" points="320.85 2653.13 369.73 2710.17 424.05 2653.13"/><polyline class="cls-4" points="320.85 2759.05 369.73 2816.09 424.05 2759.05"/><polyline class="cls-4" points="320.85 2859.54 369.73 2916.58 424.05 2859.54"/><path class="cls-3" d="M3917.42,2426.3s-246.23,560.07,20.55,537C4146.1,2945.33,3917.42,2426.3,3917.42,2426.3Z"/><line class="cls-4" x1="3917.42" y1="2581.75" x2="3917.42" y2="3094.36"/><polyline class="cls-4" points="3871.17 2624.15 3917.42 2678.11 3968.81 2624.15"/><polyline class="cls-4" points="3871.17 2724.36 3917.42 2778.32 3968.81 2724.36"/><polyline class="cls-4" points="3871.17 2819.43 3917.42 2873.39 3968.81 2819.43"/><path class="cls-3" d="M4650.85,2149.62s-260.26,592,21.73,567.63C4892.57,2698.24,4650.85,2149.62,4650.85,2149.62Z"/><line class="cls-4" x1="4650.85" y1="2313.93" x2="4650.85" y2="2855.76"/><polyline class="cls-4" points="4601.97 2358.74 4650.85 2415.78 4705.17 2358.74"/><polyline class="cls-4" points="4601.97 2464.67 4650.85 2521.7 4705.17 2464.67"/><polyline class="cls-4" points="4601.97 2565.16 4650.85 2622.19 4705.17 2565.16"/><path class="cls-7" d="M1637.47,2186.34s-6-51.25-82.24-84.62,8.34-83.43,47.67-36.94c0,0-40.52-51.25-40.52-88.2s62-44.1,75.09,37c0,0-3.58-150.17,60.78-152.55s-16.69,229.4-16.69,229.4,62-69.7,106.07-29.18S1698.25,2111.26,1678,2203Z"/><rect class="cls-24" x="1587.05" y="2164.79" width="150.17" height="184.23"/><path class="cls-25" d="M1702.65,1881.24s-64.36,138.47-46.48,284.55"/><path class="cls-25" d="M1587.64,1980.16s44.38,39.33,65.39,95.34"/><path class="cls-25" d="M1683.58,2135.09s23.84-58.4,93-59.59"/><path class="cls-25" d="M1548.91,2075.5s59.27,6,104.12,59.59"/><path class="cls-26" d="M734.92,803.46h972.52s-18.42-98.89-133-67.13-168.27-221.68-274-239.36S1188.76,656.11,1065,609,991.34,781.19,863.13,736.33,734.92,803.46,734.92,803.46Z"/><path class="cls-27" d="M521.69,1772.61H1601s0-104.53-239.84-70c-143.29,20.65-208.29-209.75-329-201.89s-126.7,173.91-198.66,167.33-125.89-54.55-161.89,0C623.62,1740.75,479.72,1712.83,521.69,1772.61Z"/><path class="cls-28" d="M3325.93,1365.27H4566.38s-172.13-88.29-322.73-80.13-158.76-136.92-297.5-166.39-138.73,182.71-204,174.55S3603.4,1170.89,3530,1211.69,3530,1331.14,3325.93,1365.27Z"/><rect class="cls-12" x="1755.36" y="390.59" width="1515.6" height="309.99" rx="32.42"/><path class="cls-29" d="M3236.4,702.18H1789.91A36.2,36.2,0,0,1,1753.76,666V425.15A36.2,36.2,0,0,1,1789.91,389H3236.4a36.2,36.2,0,0,1,36.16,36.16V666A36.2,36.2,0,0,1,3236.4,702.18Zm-1446.49-310a33,33,0,0,0-33,33V666a33,33,0,0,0,33,33H3236.4a33,33,0,0,0,33-33V425.15a33,33,0,0,0-33-33Z"/><rect class="cls-12" x="1755.36" y="839.38" width="1515.6" height="309.99" rx="32.42"/><path class="cls-30" d="M3236.4,1151H1789.91a36.2,36.2,0,0,1-36.15-36.16V873.94a36.19,36.19,0,0,1,36.15-36.15H3236.4a36.19,36.19,0,0,1,36.16,36.15v240.87A36.2,36.2,0,0,1,3236.4,1151ZM1789.91,841a33,33,0,0,0-33,33v240.87a33,33,0,0,0,33,33H3236.4a33,33,0,0,0,33-33V873.94a33,33,0,0,0-33-33Z"/><rect class="cls-31" x="2167.63" y="1240.12" width="691.05" height="178.48" rx="28.12"/><path class="cls-32" d="M1977,495.73a60.56,60.56,0,1,1-60.55-60.57A60.38,60.38,0,0,1,1977,495.73Z"/><path class="cls-33" d="M2010.84,626.93H1822.09a94.22,94.22,0,0,1,43.33-79.36,72.74,72.74,0,0,0,102.09,0A94.25,94.25,0,0,1,2010.84,626.93Z"/><path class="cls-34" d="M1932.71,1006.51l-6.4-40.15,17.35-3.28,1.81-13.6h-21.85l-2.57-16.11,32.58-7.47V908.68h-55.3v98.58a46.54,46.54,0,1,0,34.38-.75Z"/><circle class="cls-35" cx="2235.03" cy="1002.66" r="51.91" transform="translate(745.68 2947.53) rotate(-76.72)"/><circle class="cls-36" cx="2397.85" cy="1002.66" r="51.91" transform="translate(-6.67 1989.21) rotate(-45)"/><circle class="cls-37" cx="2565.07" cy="1002.66" r="51.91" transform="translate(42.3 2107.45) rotate(-45)"/><circle class="cls-38" cx="2742.05" cy="1002.66" r="51.91" transform="translate(94.14 2232.6) rotate(-45)"/><path class="cls-39" d="M3146.74,1064.52a90.59,90.59,0,0,1-85.93-61.69l-.06-.17.06-.17a90.69,90.69,0,0,1,171.86,0l.06.17-.06.17A90.58,90.58,0,0,1,3146.74,1064.52Zm-84.86-61.86a89.63,89.63,0,0,0,169.73,0,89.63,89.63,0,0,0-169.73,0Z"/><path class="cls-40" d="M3146.74,1065.06a91.12,91.12,0,0,1-86.43-62.06l-.12-.34.12-.34a91.22,91.22,0,0,1,172.87,0l.11.34-.11.34A91.13,91.13,0,0,1,3146.74,1065.06Zm-84.3-62.4a89.1,89.1,0,0,0,168.6,0,89.1,89.1,0,0,0-168.6,0Z"/><circle class="cls-41" cx="3146.74" cy="1000.34" r="34.72" transform="translate(214.31 2518.07) rotate(-45)"/><rect class="cls-42" x="2166.93" y="485.28" width="944.42" height="91.53" rx="14.42"/><path class="cls-43" d="M2362.78,1366.87V1381h-48V1287.8H2330v79.07Z"/><path class="cls-43" d="M2370.23,1334.4a47.85,47.85,0,1,1,47.85,47.85A47.88,47.88,0,0,1,2370.23,1334.4Zm80.63,0a32.78,32.78,0,1,0-32.78,32.78A32.3,32.3,0,0,0,2450.86,1334.4Z"/><path class="cls-43" d="M2575.3,1330.67v3.73a48.1,48.1,0,1,1-5.9-22.83l-13.05,7a32.91,32.91,0,1,0-28.9,48.62c15.23,0,27.81-9.79,31.54-23.77H2527.3v-12.74Z"/><path class="cls-43" d="M2593.16,1287.8h15.23V1381h-15.23Z"/><path class="cls-43" d="M2711.54,1287.8V1381h-15.22l-51.58-69.29V1381h-15.22V1287.8h15.22l51.73,69.13V1287.8Z"/><path class="cls-44" d="M2659.08,3320.3s59.82,61.45,128.73,45.12l-236.23,630.51h284.73l125.13-693.67-308.37.75Z"/><polygon class="cls-45" points="1296.85 3302.26 1471.67 3995.93 1547.57 3995.93 1347.63 3302.26 1296.85 3302.26"/><polygon class="cls-46" points="1582.48 3302.26 1757.3 3995.93 1833.2 3995.93 1633.26 3302.26 1582.48 3302.26"/><polygon class="cls-47" points="3145.51 3302.26 2970.68 3995.93 2894.79 3995.93 3094.73 3302.26 3145.51 3302.26"/><path class="cls-48" d="M2106.13,3312s76.4,70.5,166.62,86.82l-51.23,597.1H2483.8l-73-683.92Z"/></g></g></svg>